<?xml version="1.0" encoding="utf-8"?><svg version="1.1" id="Layer_1" xmlns="http://www.w3.org/2000/svg" xmlns:xlink="http://www.w3.org/1999/xlink" x="0px" y="0px" viewBox="0 0 103.19 122.88" style="enable-background:new 0 0 103.19 122.88" xml:space="preserve"><style type="text/css">.st0{fill-rule:evenodd;clip-rule:evenodd;}</style><g><path class="st0" d="M17.16,0h82.72c1.82,0,3.31,1.49,3.31,3.31v92.32c-0.15,2.58-3.48,2.64-7.08,2.48H15.94 c-4.98,0-9.05,4.07-9.05,9.05c0,4.98,4.07,9.05,9.05,9.05l80.17,0v-9.63l7.08,0v12.24c0,2.23-1.82,4.05-4.05,4.05l-82.85,0 C7.33,122.88,0,115.55,0,106.59V17.16C0,7.72,7.72,0,17.16,0L17.16,0z M54.53,14.05c20.05,0,36.3,16.25,36.3,36.3 c0,20.05-16.25,36.3-36.3,36.3c-20.05,0-36.3-16.25-36.3-36.3C18.23,30.3,34.48,14.05,54.53,14.05L54.53,14.05z M52.5,36.67 c0.6,0.21,1.29,0.32,2.05,0.32c0.8,0,1.49-0.11,2.1-0.32c0.58-0.2,1.1-0.51,1.55-0.92c0.43-0.38,0.77-0.84,0.98-1.36 c0.23-0.54,0.34-1.15,0.34-1.84c0-0.7-0.11-1.33-0.34-1.87c-0.21-0.52-0.54-0.98-0.98-1.38l-0.02-0.02 c-0.44-0.41-0.97-0.72-1.55-0.93c-0.61-0.21-1.3-0.32-2.1-0.32c-0.77,0-1.46,0.11-2.04,0.32c-0.57,0.2-1.07,0.51-1.52,0.92 l-0.03,0.03c-0.44,0.4-0.77,0.87-0.98,1.38c-0.23,0.54-0.34,1.16-0.34,1.87c0,0.69,0.11,1.3,0.34,1.84 c0.21,0.49,0.52,0.93,0.92,1.3c0.02,0.02,0.05,0.03,0.06,0.05c0.44,0.41,0.97,0.72,1.55,0.92V36.67L52.5,36.67z M46.11,67.64v5.03 h17.01v-5.03h-0.38c-0.35,0-0.7-0.09-1.06-0.29c-0.28-0.15-0.54-0.35-0.78-0.61c-0.25-0.24-0.46-0.52-0.61-0.8 C60.1,65.59,60,65.24,60,64.9V44.93c0-0.8-0.09-1.36-0.29-1.69c-0.08-0.12-0.18-0.18-0.35-0.18H45.93v5.5h0.57 c0.35,0,0.72,0.11,1.07,0.31c0.25,0.14,0.48,0.32,0.7,0.57c0.03,0.02,0.05,0.05,0.08,0.08c0.25,0.26,0.43,0.52,0.57,0.78 c0.17,0.34,0.26,0.67,0.26,1.01V64.9c0,0.32-0.08,0.63-0.23,0.95l-0.05,0.09c-0.14,0.26-0.32,0.52-0.57,0.78 c-0.25,0.26-0.51,0.48-0.77,0.63c-0.35,0.2-0.7,0.29-1.07,0.29H46.11L46.11,67.64z"/></g></svg>