<svg id="Layer_1" data-name="Layer 1" xmlns="http://www.w3.org/2000/svg" viewBox="0 0 122.88 122.88"><title>download-file-square-line</title><path fill="#FFFFFF" d="M27.25,0H95.63a27.31,27.31,0,0,1,27.25,27.25V95.63a27.31,27.31,0,0,1-27.25,27.25H27.25A27.31,27.31,0,0,1,0,95.63V27.25A27.31,27.31,0,0,1,27.25,0ZM71.59,50.47a3.38,3.38,0,1,1,4.74,4.83L63.48,68a3.4,3.4,0,0,1-4.75,0L46.07,55.48a3.38,3.38,0,1,1,4.74-4.83l7,6.91.07-24.33a3.39,3.39,0,1,1,6.77.05l-.07,24.15,7-7ZM34.48,81.55l.05-13.24a3.39,3.39,0,1,1,6.77.06l0,9.64q20.16,0,40.32,0l0-9.7a3.39,3.39,0,1,1,6.78.06l-.05,13.18h0A3.38,3.38,0,0,1,85,84.78c-15.72,0-31.39,0-47.11,0a3.38,3.38,0,0,1-3.35-3.23ZM95.63,7H27.25A20.35,20.35,0,0,0,7,27.25V95.63a20.35,20.35,0,0,0,20.29,20.29H95.63a20.35,20.35,0,0,0,20.29-20.29V27.25A20.35,20.35,0,0,0,95.63,7Z"/></svg>