<?xml version="1.0" encoding="utf-8"?><svg version="1.1" id="Layer_1" xmlns="http://www.w3.org/2000/svg" xmlns:xlink="http://www.w3.org/1999/xlink" x="0px" y="0px" viewBox="0 0 110.36 122.88" style="enable-background:new 0 0 110.36 122.88" xml:space="preserve"><style type="text/css">.st0{fill-rule:evenodd;clip-rule:evenodd;}</style><g><path class="st0" d="M110.36,0v33.28h-3.25c-1.95-7.7-4.08-13.21-6.43-16.55c-2.35-3.37-5.6-6.03-9.71-8.01 c-2.29-1.12-6.31-1.64-12.03-1.64l-9.15,0v94.76c0,6.28,0.34,10.21,1.02,11.79c0.71,1.57,2.07,2.94,4.08,4.12 c2.04,1.2,4.79,1.79,8.29,1.79h4.08v3.34H22.92v-3.34H27c3.56,0,6.43-0.65,8.6-1.92c1.58-0.84,2.82-2.29,3.71-4.36 c0.68-1.42,1.02-5.23,1.02-11.41l0-94.76h-8.91c-8.26,0-14.29,1.73-18.03,5.26c-5.26,4.89-8.57,11.87-9.96,20.94l-3.43,0V0H110.36 L110.36,0z"/></g></svg>